# xmcd CD database file generated by Grip 2.96
# 
# Track frame offsets:
#       150
#       13961
#       29439
#       44625
#       58371
#       73231
#       87817
#       101853
#       114988
#       129622
#       144938
#       158688
#       173847
# 
# Disc length: 2526 seconds
# 
# Revision: 0
# Processed by: cddbd v1.4PL0 Copyright (c) Steve Scherf et al.
# Submitted via: Grip 2.96
# 
DISCID=bb09dc0d
DTITLE=Louis Armstrong - The Best of Louis Armstrong
DYEAR=1900
DGENRE=
TTITLE0=St. Louis Blues
TTITLE1=Mahogany Hall Stomp
TTITLE2=Save It, Pretty Mama
TTITLE3=Hobo, You Can't Ride This Train
TTITLE4=West End Blues
TTITLE5=I've Got the World on a String
TTITLE6=Cornet Chop Suey
TTITLE7=Heebie Jeebies
TTITLE8=You Rascal, You
TTITLE9=When It's Sleepy Time Down South
TTITLE10=I Gotta' Right to Sing the Blues
TTITLE11=I'm Confessin' (That I Love You)
TTITLE12=Star Dust
EXTD=
EXTT0=
EXTT1=
EXTT2=
EXTT3=
EXTT4=
EXTT5=
EXTT6=
EXTT7=
EXTT8=
EXTT9=
EXTT10=
EXTT11=
EXTT12=
PLAYORDER=
